<svg xmlns="http://www.w3.org/2000/svg" viewBox="0 0 100 100" width="200" height="200">
  <defs>
    <style>
      .st0 { fill: none; stroke: #333; stroke-width: 4; stroke-miterlimit: 10; }
      .st1 { fill: #333; }
    </style>
  </defs>
  
  <!-- Magnifying glass -->
  <circle class="st0" cx="50" cy="50" r="20"/>
  <line class="st0" x1="64.14" y1="64.14" x2="75" y2="75"/>
  
  <!-- Gears inside magnifying glass -->
  <g>
    <!-- Big Gear -->
    <path class="st1" d="M50,58.5c-4.68,0-8.5-3.82-8.5-8.5s3.82-8.5,8.5-8.5s8.5,3.82,8.5,8.5S54.68,58.5,50,58.5z M50,43.5
      c-3.58,0-6.5,2.92-6.5,6.5s2.92,6.5,6.5,6.5s6.5-2.92,6.5-6.5S53.58,43.5,50,43.5z"/>
    <path class="st1" d="M50,60c-1.1,0-2-0.9-2-2v-4.5c0-1.1,0.9-2,2-2s2,0.9,2,2V58C52,59.1,51.1,60,50,60z"/>
    <path class="st1" d="M50,44c-1.1,0-2-0.9-2-2v-4.5c0-1.1,0.9-2,2-2s2,0.9,2,2V42C52,43.1,51.1,44,50,44z"/>
    <path class="st1" d="M60.5,50c0,1.1-0.9,2-2,2h-4.5c-1.1,0-2-0.9-2-2s0.9-2,2-2h4.5C59.6,48,60.5,48.9,60.5,50z"/>
    <path class="st1" d="M44.5,50c0,1.1-0.9,2-2,2h-4.5c-1.1,0-2-0.9-2-2s0.9-2,2-2h4.5C43.6,48,44.5,48.9,44.5,50z"/>
    <path class="st1" d="M57.41,57.41c-0.78,0.78-2.05,0.78-2.83,0l-3.18-3.18c-0.78-0.78-0.78-2.05,0-2.83s2.05-0.78,2.83,0l3.18,3.18
      C58.2,55.37,58.2,56.63,57.41,57.41z"/>
    <path class="st1" d="M42.59,42.59c-0.78,0.78-2.05,0.78-2.83,0l-3.18-3.18c-0.78-0.78-0.78-2.05,0-2.83s2.05-0.78,2.83,0l3.18,3.18
      C43.37,40.54,43.37,41.81,42.59,42.59z"/>
    <path class="st1" d="M57.41,42.59c0.78-0.78,0.78-2.05,0-2.83l-3.18-3.18c-0.78-0.78-2.05-0.78-2.83,0s-0.78,2.05,0,2.83l3.18,3.18
      C55.37,43.37,56.63,43.37,57.41,42.59z"/>
    <path class="st1" d="M42.59,57.41c0.78-0.78,0.78-2.05,0-2.83l-3.18-3.18c-0.78-0.78-2.05-0.78-2.83,0s-0.78,2.05,0,2.83l3.18,3.18
      C40.54,58.2,41.81,58.2,42.59,57.41z"/>
  </g>
</svg>
